<svg xmlns="http://www.w3.org/2000/svg" xmlns:xlink="http://www.w3.org/1999/xlink" width="500" zoomAndPan="magnify" viewBox="0 0 375 374.999991" height="500" preserveAspectRatio="xMidYMid meet" version="1.0"><defs><g/></defs><rect x="-37.5" width="450" fill="#ffffff" y="-37.499999" height="449.999989" fill-opacity="1"/><rect x="-37.5" width="450" fill="#ffffff" y="-37.499999" height="449.999989" fill-opacity="1"/><g fill="#000000" fill-opacity="1"><g transform="translate(59.707032, 218.631322)"><g><path d="M 4.796875 -158.34375 L 4.796875 -159.9375 L 119.3125 -159.9375 L 119.3125 -138.34375 L 117.71875 -138.34375 L 117.71875 -138.984375 C 117.71875 -144.316406 112.675781 -148.875 102.59375 -152.65625 C 92.519531 -156.445312 78.257812 -158.34375 59.8125 -158.34375 L 33.265625 -158.34375 L 33.265625 -89.5625 C 35.722656 -91.90625 38.519531 -93.71875 41.65625 -95 C 44.800781 -96.28125 48.1875 -96.921875 51.8125 -96.921875 C 55.757812 -96.921875 59.359375 -96.414062 62.609375 -95.40625 C 65.867188 -94.394531 68.960938 -93.25 71.890625 -91.96875 C 74.828125 -90.6875 77.785156 -89.535156 80.765625 -88.515625 C 83.753906 -87.503906 87.007812 -87 90.53125 -87 C 93.613281 -87 96.351562 -87.828125 98.75 -89.484375 C 101.15625 -91.140625 102.359375 -93.351562 102.359375 -96.125 L 103.953125 -96.125 C 103.953125 -91.425781 102.113281 -87.316406 98.4375 -83.796875 C 94.757812 -80.285156 89.773438 -78.53125 83.484375 -78.53125 C 78.578125 -78.53125 74.3125 -79.222656 70.6875 -80.609375 C 67.0625 -81.992188 63.8125 -83.59375 60.9375 -85.40625 C 58.0625 -87.21875 55.316406 -88.84375 52.703125 -90.28125 C 50.085938 -91.71875 47.34375 -92.492188 44.46875 -92.609375 C 42.113281 -92.710938 39.976562 -92.226562 38.0625 -91.15625 C 36.144531 -90.09375 34.546875 -88.707031 33.265625 -87 L 33.265625 -1.59375 L 53.734375 -1.59375 C 56.296875 -1.59375 59.628906 -1.671875 63.734375 -1.828125 C 67.835938 -1.992188 72.285156 -2.34375 77.078125 -2.875 C 81.878906 -3.40625 86.648438 -4.226562 91.390625 -5.34375 C 96.140625 -6.46875 100.515625 -7.9375 104.515625 -9.75 C 108.515625 -11.5625 111.710938 -13.828125 114.109375 -16.546875 C 116.515625 -19.265625 117.71875 -22.546875 117.71875 -26.390625 L 119.3125 -26.390625 L 119.3125 0 L 4.796875 0 L 4.796875 -1.59375 C 9.378906 -1.59375 12.707031 -2.976562 14.78125 -5.75 C 16.863281 -8.53125 18.171875 -13.0625 18.703125 -19.34375 C 19.242188 -25.632812 19.515625 -34.007812 19.515625 -44.46875 L 19.515625 -115.46875 C 19.515625 -126.03125 19.242188 -134.425781 18.703125 -140.65625 C 18.171875 -146.894531 16.863281 -151.398438 14.78125 -154.171875 C 12.707031 -156.953125 9.378906 -158.34375 4.796875 -158.34375 Z M 4.796875 -158.34375 "/></g></g></g><g fill="#000000" fill-opacity="1"><g transform="translate(183.818474, 218.631322)"><g><path d="M 9.59375 -121.546875 C 9.59375 -129.015625 11.804688 -135.894531 16.234375 -142.1875 C 20.660156 -148.476562 27.140625 -153.539062 35.671875 -157.375 C 44.203125 -161.21875 54.597656 -163.140625 66.859375 -163.140625 C 76.660156 -163.140625 85.160156 -162.445312 92.359375 -161.0625 C 99.554688 -159.675781 106.25 -157.914062 112.4375 -155.78125 L 112.4375 -134.34375 L 110.84375 -134.34375 C 110.84375 -134.34375 110.414062 -135.25 109.5625 -137.0625 C 108.707031 -138.875 107.265625 -141.113281 105.234375 -143.78125 C 103.210938 -146.445312 100.519531 -149.113281 97.15625 -151.78125 C 93.800781 -154.445312 89.617188 -156.6875 84.609375 -158.5 C 79.597656 -160.3125 73.679688 -161.21875 66.859375 -161.21875 C 56.941406 -161.21875 48.539062 -159.457031 41.65625 -155.9375 C 34.78125 -152.414062 29.582031 -147.9375 26.0625 -142.5 C 22.550781 -137.0625 20.796875 -131.359375 20.796875 -125.390625 C 20.796875 -119.953125 22.207031 -115.3125 25.03125 -111.46875 C 27.851562 -107.632812 31.691406 -104.332031 36.546875 -101.5625 C 41.398438 -98.789062 46.8125 -96.335938 52.78125 -94.203125 C 58.75 -92.066406 64.929688 -89.929688 71.328125 -87.796875 C 77.722656 -85.671875 83.90625 -83.351562 89.875 -80.84375 C 95.851562 -78.34375 101.265625 -75.332031 106.109375 -71.8125 C 110.960938 -68.289062 114.800781 -64.050781 117.625 -59.09375 C 120.457031 -54.132812 121.875 -48.140625 121.875 -41.109375 C 121.875 -35.554688 120.488281 -30.140625 117.71875 -24.859375 C 114.945312 -19.585938 110.945312 -14.84375 105.71875 -10.625 C 100.488281 -6.414062 94.195312 -3.054688 86.84375 -0.546875 C 79.488281 1.953125 71.171875 3.203125 61.890625 3.203125 C 54.859375 3.203125 48.140625 2.1875 41.734375 0.15625 C 35.335938 -1.863281 29.472656 -4.394531 24.140625 -7.4375 C 18.816406 -10.476562 14.179688 -13.4375 10.234375 -16.3125 L 10.234375 -37.75 L 11.828125 -37.75 C 11.828125 -37.75 12.65625 -36.46875 14.3125 -33.90625 C 15.96875 -31.34375 18.421875 -28.171875 21.671875 -24.390625 C 24.921875 -20.609375 28.914062 -16.820312 33.65625 -13.03125 C 38.40625 -9.25 43.898438 -6.078125 50.140625 -3.515625 C 56.378906 -0.960938 63.285156 0.3125 70.859375 0.3125 C 76.722656 0.3125 82.1875 -0.644531 87.25 -2.5625 C 92.3125 -4.476562 96.734375 -7.085938 100.515625 -10.390625 C 104.304688 -13.703125 107.265625 -17.4375 109.390625 -21.59375 C 111.523438 -25.75 112.59375 -30.066406 112.59375 -34.546875 C 112.59375 -40.515625 111.148438 -45.65625 108.265625 -49.96875 C 105.390625 -54.289062 101.5 -58 96.59375 -61.09375 C 91.695312 -64.1875 86.179688 -66.957031 80.046875 -69.40625 C 73.921875 -71.863281 67.601562 -74.210938 61.09375 -76.453125 C 54.59375 -78.691406 48.273438 -81.085938 42.140625 -83.640625 C 36.015625 -86.203125 30.5 -89.160156 25.59375 -92.515625 C 20.6875 -95.878906 16.789062 -99.929688 13.90625 -104.671875 C 11.03125 -109.421875 9.59375 -115.046875 9.59375 -121.546875 Z M 9.59375 -121.546875 "/></g></g></g><g fill="#000000" fill-opacity="1"><g transform="translate(39.0864, 264.534607)"><g><path d="M 16.078125 -20.25 L 16.078125 -17.640625 L 5.625 -17.640625 L 5.625 -11.484375 L 14.953125 -11.484375 L 14.953125 -8.875 L 5.625 -8.875 L 5.625 -2.625 L 16.46875 -2.625 L 16.46875 0 L 2.90625 0 L 2.90625 -20.25 Z M 16.078125 -20.25 "/></g></g></g><g fill="#000000" fill-opacity="1"><g transform="translate(76.407881, 264.534607)"><g><path d="M 5.625 -20.25 L 5.625 -2.625 L 15.9375 -2.625 L 15.9375 0 L 2.90625 0 L 2.90625 -20.25 Z M 5.625 -20.25 "/></g></g></g><g fill="#000000" fill-opacity="1"><g transform="translate(112.861489, 264.534607)"><g><path d="M 16.078125 -20.25 L 16.078125 -17.640625 L 5.625 -17.640625 L 5.625 -11.484375 L 14.953125 -11.484375 L 14.953125 -8.875 L 5.625 -8.875 L 5.625 -2.625 L 16.46875 -2.625 L 16.46875 0 L 2.90625 0 L 2.90625 -20.25 Z M 16.078125 -20.25 "/></g></g></g><g fill="#000000" fill-opacity="1"><g transform="translate(150.18297, 264.534607)"><g><path d="M 1.65625 -10.109375 C 1.65625 -11.953125 2.117188 -13.664062 3.046875 -15.25 C 3.984375 -16.84375 5.238281 -18.109375 6.8125 -19.046875 C 8.394531 -19.992188 10.117188 -20.46875 11.984375 -20.46875 C 13.828125 -20.46875 15.539062 -19.992188 17.125 -19.046875 C 18.71875 -18.109375 19.984375 -16.84375 20.921875 -15.25 C 21.867188 -13.664062 22.34375 -11.953125 22.34375 -10.109375 C 22.34375 -8.242188 21.875 -6.515625 20.9375 -4.921875 C 20.007812 -3.335938 18.742188 -2.082031 17.140625 -1.15625 C 15.546875 -0.238281 13.828125 0.21875 11.984375 0.21875 C 10.117188 0.21875 8.390625 -0.234375 6.796875 -1.140625 C 5.210938 -2.054688 3.957031 -3.300781 3.03125 -4.875 C 2.113281 -6.457031 1.65625 -8.203125 1.65625 -10.109375 Z M 4.453125 -10.078125 C 4.453125 -8.703125 4.785156 -7.425781 5.453125 -6.25 C 6.128906 -5.070312 7.050781 -4.132812 8.21875 -3.4375 C 9.382812 -2.75 10.660156 -2.40625 12.046875 -2.40625 C 13.421875 -2.40625 14.679688 -2.742188 15.828125 -3.421875 C 16.984375 -4.109375 17.890625 -5.046875 18.546875 -6.234375 C 19.210938 -7.421875 19.546875 -8.710938 19.546875 -10.109375 C 19.546875 -11.503906 19.207031 -12.800781 18.53125 -14 C 17.863281 -15.195312 16.953125 -16.140625 15.796875 -16.828125 C 14.640625 -17.515625 13.367188 -17.859375 11.984375 -17.859375 C 10.597656 -17.859375 9.328125 -17.507812 8.171875 -16.8125 C 7.015625 -16.113281 6.101562 -15.164062 5.4375 -13.96875 C 4.78125 -12.78125 4.453125 -11.484375 4.453125 -10.078125 Z M 4.453125 -10.078125 "/></g></g></g><g fill="#000000" fill-opacity="1"><g transform="translate(193.215682, 264.534607)"><g><path d="M 20.546875 -20.25 L 20.546875 0.671875 L 20.46875 0.671875 L 5.59375 -14.421875 L 5.65625 0 L 2.90625 0 L 2.90625 -20.859375 L 3.046875 -20.859375 L 17.890625 -5.59375 L 17.84375 -20.25 Z M 20.546875 -20.25 "/></g></g></g><g fill="#000000" fill-opacity="1"><g transform="translate(235.716461, 264.534607)"><g><path d="M 1.65625 -10.109375 C 1.65625 -11.953125 2.117188 -13.664062 3.046875 -15.25 C 3.984375 -16.84375 5.238281 -18.109375 6.8125 -19.046875 C 8.394531 -19.992188 10.117188 -20.46875 11.984375 -20.46875 C 13.828125 -20.46875 15.539062 -19.992188 17.125 -19.046875 C 18.71875 -18.109375 19.984375 -16.84375 20.921875 -15.25 C 21.867188 -13.664062 22.34375 -11.953125 22.34375 -10.109375 C 22.34375 -8.242188 21.875 -6.515625 20.9375 -4.921875 C 20.007812 -3.335938 18.742188 -2.082031 17.140625 -1.15625 C 15.546875 -0.238281 13.828125 0.21875 11.984375 0.21875 C 10.117188 0.21875 8.390625 -0.234375 6.796875 -1.140625 C 5.210938 -2.054688 3.957031 -3.300781 3.03125 -4.875 C 2.113281 -6.457031 1.65625 -8.203125 1.65625 -10.109375 Z M 4.453125 -10.078125 C 4.453125 -8.703125 4.785156 -7.425781 5.453125 -6.25 C 6.128906 -5.070312 7.050781 -4.132812 8.21875 -3.4375 C 9.382812 -2.75 10.660156 -2.40625 12.046875 -2.40625 C 13.421875 -2.40625 14.679688 -2.742188 15.828125 -3.421875 C 16.984375 -4.109375 17.890625 -5.046875 18.546875 -6.234375 C 19.210938 -7.421875 19.546875 -8.710938 19.546875 -10.109375 C 19.546875 -11.503906 19.207031 -12.800781 18.53125 -14 C 17.863281 -15.195312 16.953125 -16.140625 15.796875 -16.828125 C 14.640625 -17.515625 13.367188 -17.859375 11.984375 -17.859375 C 10.597656 -17.859375 9.328125 -17.507812 8.171875 -16.8125 C 7.015625 -16.113281 6.101562 -15.164062 5.4375 -13.96875 C 4.78125 -12.78125 4.453125 -11.484375 4.453125 -10.078125 Z M 4.453125 -10.078125 "/></g></g></g><g fill="#000000" fill-opacity="1"><g transform="translate(278.749173, 264.534607)"><g><path d="M 14.0625 0 L 9.296875 -7.46875 C 9.148438 -7.457031 8.925781 -7.453125 8.625 -7.453125 L 5.625 -7.453125 L 5.625 0 L 2.90625 0 L 2.90625 -20.25 L 8.3125 -20.25 C 9.695312 -20.25 10.929688 -20.003906 12.015625 -19.515625 C 13.097656 -19.023438 13.945312 -18.304688 14.5625 -17.359375 C 15.175781 -16.421875 15.484375 -15.289062 15.484375 -13.96875 C 15.484375 -12.71875 15.207031 -11.566406 14.65625 -10.515625 C 14.101562 -9.472656 13.257812 -8.679688 12.125 -8.140625 L 17.21875 0 Z M 8.5625 -10.078125 C 10.019531 -10.078125 11.070312 -10.457031 11.71875 -11.21875 C 12.363281 -11.988281 12.6875 -12.867188 12.6875 -13.859375 C 12.6875 -14.453125 12.550781 -15.035156 12.28125 -15.609375 C 12.007812 -16.191406 11.578125 -16.675781 10.984375 -17.0625 C 10.398438 -17.445312 9.660156 -17.640625 8.765625 -17.640625 L 5.625 -17.640625 L 5.625 -10.078125 Z M 8.5625 -10.078125 "/></g></g></g><g fill="#000000" fill-opacity="1"><g transform="translate(316.266634, 264.534607)"><g><path d="M 13.53125 -5.3125 L 5.734375 -5.3125 L 3.578125 0 L 0.890625 0 L 9.75 -21.078125 L 9.90625 -21.078125 L 18.765625 0 L 15.625 0 Z M 12.59375 -7.671875 L 9.71875 -15.0625 L 6.71875 -7.671875 Z M 12.59375 -7.671875 "/></g></g></g><g fill="#000000" fill-opacity="1"><g transform="translate(49.633275, 302.784604)"><g><path d="M 13.390625 -16.625 C 12.660156 -17.019531 11.882812 -17.335938 11.0625 -17.578125 C 10.238281 -17.828125 9.460938 -17.953125 8.734375 -17.953125 C 7.628906 -17.953125 6.753906 -17.703125 6.109375 -17.203125 C 5.472656 -16.710938 5.15625 -16.035156 5.15625 -15.171875 C 5.15625 -14.335938 5.53125 -13.648438 6.28125 -13.109375 C 7.039062 -12.578125 8.117188 -12.050781 9.515625 -11.53125 C 10.566406 -11.15625 11.453125 -10.75 12.171875 -10.3125 C 12.890625 -9.875 13.484375 -9.269531 13.953125 -8.5 C 14.429688 -7.726562 14.671875 -6.742188 14.671875 -5.546875 C 14.671875 -4.460938 14.398438 -3.476562 13.859375 -2.59375 C 13.316406 -1.71875 12.546875 -1.03125 11.546875 -0.53125 C 10.546875 -0.03125 9.375 0.21875 8.03125 0.21875 C 6.78125 0.21875 5.578125 0.0195312 4.421875 -0.375 C 3.265625 -0.78125 2.25 -1.289062 1.375 -1.90625 L 2.578125 -4.0625 C 3.265625 -3.539062 4.09375 -3.097656 5.0625 -2.734375 C 6.039062 -2.367188 6.945312 -2.1875 7.78125 -2.1875 C 8.863281 -2.1875 9.8125 -2.460938 10.625 -3.015625 C 11.4375 -3.578125 11.84375 -4.410156 11.84375 -5.515625 C 11.84375 -6.453125 11.5 -7.191406 10.8125 -7.734375 C 10.132812 -8.285156 9.179688 -8.804688 7.953125 -9.296875 C 6.816406 -9.722656 5.867188 -10.140625 5.109375 -10.546875 C 4.347656 -10.960938 3.695312 -11.53125 3.15625 -12.25 C 2.625 -12.96875 2.359375 -13.867188 2.359375 -14.953125 C 2.359375 -16.535156 2.910156 -17.816406 4.015625 -18.796875 C 5.128906 -19.773438 6.570312 -20.296875 8.34375 -20.359375 C 10.53125 -20.359375 12.554688 -19.816406 14.421875 -18.734375 Z M 13.390625 -16.625 "/></g></g></g><g fill="#000000" fill-opacity="1"><g transform="translate(84.967032, 302.784604)"><g><path d="M 13.53125 -5.3125 L 5.734375 -5.3125 L 3.578125 0 L 0.890625 0 L 9.75 -21.078125 L 9.90625 -21.078125 L 18.765625 0 L 15.625 0 Z M 12.59375 -7.671875 L 9.71875 -15.0625 L 6.71875 -7.671875 Z M 12.59375 -7.671875 "/></g></g></g><g fill="#000000" fill-opacity="1"><g transform="translate(123.632335, 302.784604)"><g><path d="M 8.34375 -20.25 C 10.539062 -20.25 12.257812 -19.695312 13.5 -18.59375 C 14.75 -17.488281 15.375 -15.945312 15.375 -13.96875 C 15.375 -12.832031 15.144531 -11.769531 14.6875 -10.78125 C 14.226562 -9.789062 13.488281 -8.988281 12.46875 -8.375 C 11.457031 -7.757812 10.175781 -7.453125 8.625 -7.453125 L 5.625 -7.453125 L 5.625 0 L 2.90625 0 L 2.90625 -20.25 Z M 8.625 -10.078125 C 9.59375 -10.078125 10.378906 -10.28125 10.984375 -10.6875 C 11.597656 -11.101562 12.035156 -11.601562 12.296875 -12.1875 C 12.554688 -12.78125 12.6875 -13.359375 12.6875 -13.921875 C 12.6875 -14.890625 12.367188 -15.75 11.734375 -16.5 C 11.097656 -17.257812 10.109375 -17.640625 8.765625 -17.640625 L 5.625 -17.640625 L 5.625 -10.078125 Z M 8.625 -10.078125 "/></g></g></g><g fill="#000000" fill-opacity="1"><g transform="translate(159.330048, 302.784604)"><g><path d="M 5.625 -20.25 L 5.625 0 L 2.90625 0 L 2.90625 -20.25 Z M 5.625 -20.25 "/></g></g></g><g fill="#000000" fill-opacity="1"><g transform="translate(186.908865, 302.784604)"><g><path d="M 16.078125 -20.25 L 16.078125 -17.640625 L 5.625 -17.640625 L 5.625 -11.484375 L 14.953125 -11.484375 L 14.953125 -8.875 L 5.625 -8.875 L 5.625 -2.625 L 16.46875 -2.625 L 16.46875 0 L 2.90625 0 L 2.90625 -20.25 Z M 16.078125 -20.25 "/></g></g></g><g fill="#000000" fill-opacity="1"><g transform="translate(224.230346, 302.784604)"><g><path d="M 20.546875 -20.25 L 20.546875 0.671875 L 20.46875 0.671875 L 5.59375 -14.421875 L 5.65625 0 L 2.90625 0 L 2.90625 -20.859375 L 3.046875 -20.859375 L 17.890625 -5.59375 L 17.84375 -20.25 Z M 20.546875 -20.25 "/></g></g></g><g fill="#000000" fill-opacity="1"><g transform="translate(266.731114, 302.784604)"><g><path d="M 18.421875 -2.625 L 18.421875 0 L 1.421875 0 L 6.1875 -7.078125 C 10 -12.796875 12.367188 -16.316406 13.296875 -17.640625 L 4.875 -17.640625 C 4.269531 -17.640625 3.734375 -17.789062 3.265625 -18.09375 C 2.804688 -18.40625 2.578125 -18.820312 2.578125 -19.34375 L 2.578125 -21.25 L 5.09375 -21.25 L 5.09375 -20.890625 C 5.09375 -20.585938 5.148438 -20.40625 5.265625 -20.34375 C 5.378906 -20.28125 5.617188 -20.25 5.984375 -20.25 L 18.109375 -20.25 L 6.109375 -2.625 Z M 18.421875 -2.625 "/></g></g></g><g fill="#000000" fill-opacity="1"><g transform="translate(305.73237, 302.784604)"><g><path d="M 13.53125 -5.3125 L 5.734375 -5.3125 L 3.578125 0 L 0.890625 0 L 9.75 -21.078125 L 9.90625 -21.078125 L 18.765625 0 L 15.625 0 Z M 12.59375 -7.671875 L 9.71875 -15.0625 L 6.71875 -7.671875 Z M 12.59375 -7.671875 "/></g></g></g></svg>